inDegrees=yes
name=ik_data_2024_11_07_17_49
DataType=double
version=3
OpenSimVersion=4.5.1
endheader
time	pelvis_tilt	pelvis_list	pelvis_rotation	pelvis_tx	pelvis_ty	pelvis_tz	hip_flexion_r	hip_adduction_r	hip_rotation_r	knee_angle_r	knee_angle_r_beta	ankle_angle_r	subtalar_angle_r	mtp_angle_r	hip_flexion_l	hip_adduction_l	hip_rotation_l	knee_angle_l	knee_angle_l_beta	ankle_angle_l	subtalar_angle_l	mtp_angle_l	lumbar_extension	lumbar_bending	lumbar_rotation	arm_flex_r	arm_add_r	arm_rot_r	elbow_flex_r	pro_sup_r	wrist_flex_r	wrist_dev_r	arm_flex_l	arm_add_l	arm_rot_l	elbow_flex_l	pro_sup_l	wrist_flex_l	wrist_dev_l
15.06638	0.1978500289904561	-0.06471831686650394	-91.75012742613252	0	0.9399999999999999	0	0.2601736148342558	-0.1804729469842369	-0.1573120140011543	0.4486053128790412	0.00782963975167859	-4.772332214581493	0	0	0.212705007870615	0.1883551884467037	-0.07670715296847673	0.5140637113123933	0.008972104327422882	-4.772332214581493	0	0	0	0	0	0	-4.143445672828887	0	50.8888627496205	41.9121498397723	0	0	0	-4.143445672828887	0	50.8888627496205	41.9121498397723	0	0
15.11799	0.1928744515773503	-0.05102278909209643	-91.74970321172279	0	0.9399999999999999	0	0.2873736760588602	-0.1852811344387111	-0.1882883334307715	0.4489565255326057	0.007835769568857958	-4.77246830772136	0	0	0.2215161663230816	0.1842947912152821	-0.07877919329508876	0.5115516174831941	0.008928260018984325	-4.77246830772136	0	0	0	0	0	0	-4.144201372010809	0	50.8924523230662	41.91328393481507	0	0	0	-4.144201372010809	0	50.8924523230662	41.91328393481507	0	0
15.12909	0.1784164279426352	-0.03519413729006421	-91.7513563051471	0	0.9399999999999999	0	0.3298423100688293	-0.1765289984463188	-0.2357664525383126	0.4354617671353332	0.0076002416030644	-4.772609812380902	0	0	0.2381966202035129	0.1722845761750341	-0.07794174221612887	0.5086328657204996	0.008877318190676917	-4.772609812380902	0	0	0	0	0	0	-4.144976652482626	0	50.89615163323156	41.91445889598882	0	0	0	-4.144976652482626	0	50.89615163323156	41.91445889598882	0	0
15.18192	0.1778020345533013	-0.008500094593226927	-91.73674467712659	0	0.9399999999999999	0	0.3025581364733964	-0.1420460275134189	-0.1359982581867605	0.4225092267253049	0.00737417712641179	-4.772750605488504	0	0	0.2591852397310662	0.1667740978196016	-0.07032190011600092	0.5104859809614378	0.008909661153050178	-4.772750605488504	0	0	0	0	0	0	-4.145773375513131	0	50.89991576628294	41.91563933346852	0	0	0	-4.145773375513131	0	50.89991576628294	41.91563933346852	0	0
15.24639	0.1875665174927017	-0.004630999415466691	-91.74472604873014	0	0.9399999999999999	0	0.3074408885371695	-0.1334345831991542	-0.1480026491356891	0.4386438130569311	0.007655778781345941	-4.772895946454594	0	0	0.2694695913865042	0.178268552114571	-0.07295295110376265	0.5115084813870041	0.008927507152079354	-4.772895946454594	0	0	0	0	0	0	-4.146585241591878	0	50.90376424491853	41.91685250885237	0	0	0	-4.146585241591878	0	50.90376424491853	41.91685250885237	0	0
15.30015	0.1712970019801375	0.01659417069762658	-91.74650450610663	0	0.9399999999999999	0	0.3596633595623148	-0.1366787922094952	-0.2070669862889571	0.4234738632209549	0.007391013209345782	-4.773068258837029	0	0	0.2914253218038604	0.1673527334478166	-0.07602859977043293	0.5029080192761982	0.008777400771052768	-4.773068258837029	0	0	0	0	0	0	-4.147525780958317	0	50.90825775486632	41.91828192886572	0	0	0	-4.147525780958317	0	50.90825775486632	41.91828192886572	0	0
15.30734	0.193925886052988	0.02973671614384257	-91.74780579152609	0	0.9399999999999999	0	0.3879594862692947	-0.1190750468510472	-0.2183747407900885	0.4046622621875822	0.00706268883374186	-4.773251358763717	0	0	0.302746105068826	0.1852291791904831	-0.07418986102155783	0.508667291035319	0.008877919025766554	-4.773251358763717	0	0	0	0	0	0	-4.148532155562336	0	50.91305523913497	41.91980392349531	0	0	0	-4.148532155562336	0	50.91305523913497	41.91980392349531	0	0
15.36535	0.203602369845535	0.0613626914276611	-91.75163041354064	0	0.9399999999999999	0	0.4242931118010122	-0.1642707595819913	-0.2180105249782198	0.4194491022422911	0.007320767878662311	-4.774441242346382	0	0	0.336643818179746	0.1903603377500903	-0.08352686901352463	0.5226765687644703	0.009122427047966557	-4.774441242346382	0	0	0	0	0	0	-4.1547955827707	0	50.94337351393609	41.92959363299538	0	0	0	-4.1547955827707	0	50.94337351393609	41.92959363299538	0	0
15.42591	0.2519319232761951	0.0972423254685868	-91.74679843402397	0	0.9399999999999999	0	0.4311282491822096	-0.1804964240383515	-0.1672909853872657	0.3980117442754554	0.00694661539921239	-4.774604275377282	0	0	0.3762308318741078	0.2318941264693027	-0.07708285339482943	0.5072481282989251	0.008853149963394867	-4.774604275377282	0	0	0	0	0	0	-4.15575147224728	0	50.947841967095	41.93097575474441	0	0	0	-4.15575147224728	0	50.947841967095	41.93097575474441	0	0
15.4859	0.2512576693666038	0.1397829163586236	-91.7523819128408	0	0.9399999999999999	0	0.4565180302460283	-0.1366969630818551	-0.1208123126838473	0.3699438058649211	0.006456737459701583	-4.775630211521955	0	0	0.4021054195003357	0.2345897654153543	-0.07915827836888874	0.498457665244722	0.008699727440324104	-4.775630211521955	0	0	0	0	0	0	-4.160910422241746	0	50.9732494281826	41.9393300056877	0	0	0	-4.160910422241746	0	50.9732494281826	41.9393300056877	0	0
15.48795	0.2909090115609578	0.243978173423818	-91.75008259003553	0	0.9399999999999999	0	0.5485688889426491	-0.1627249385084143	-0.1167027918015741	0.3454206907166276	0.006028728357518162	-4.776590757146246	0	0	0.5220813505763477	0.2748845205182999	-0.07853781083376052	0.507183285609493	0.008852018244968429	-4.776590757146246	0	0	0	0	0	0	-4.165953737030504	0	50.99772242745526	41.94724244346317	0	0	0	-4.165953737030504	0	50.99772242745526	41.94724244346317	0	0
15.54622	0.2837006629417176	0.2166350573622974	-91.75429817537274	0	0.9399999999999999	0	0.5568223016630411	-0.1752455896155464	-0.1445405063458891	0.3625139568734672	0.006327062131874731	-4.776730535480186	0	0	0.4963779378347035	0.2657730461899286	-0.08242040586188489	0.5129803838128556	0.008953196695678553	-4.776730535480186	0	0	0	0	0	0	-4.166734590159733	0	51.00143024968894	41.94841191699178	0	0	0	-4.166734590159733	0	51.00143024968894	41.94841191699178	0	0
15.60355	0.3409643673266609	0.1552633728102754	-91.75150595895222	0	0.9399999999999999	0	0.4624076410691289	-0.2401565268911484	-0.08194349996155599	0.3552992046125591	0.00620114095020618	-4.777011135630242	0	0	0.4262902647402988	0.323515625431349	-0.07697486058115077	0.5094488477952297	0.008891559764518213	-4.777011135630242	0	0	0	0	0	0	-4.168398575838983	0	51.00918555347943	41.95080086616444	0	0	0	-4.168398575838983	0	51.00918555347943	41.95080086616444	0	0
15.66436	0.325354168037153	0.1375125275844459	-91.75305794883695	0	0.9399999999999999	0	0.4522738233018464	-0.2020555595947367	-0.1162271364606338	0.3977762724266977	0.006942505640155809	-4.777151643366555	0	0	0.4228237120290791	0.3129868099792255	-0.08304458084658915	0.5143064522556231	0.008976340956111641	-4.777151643366555	0	0	0	0	0	0	-4.169192060509945	0	51.01293986112209	41.95198005282836	0	0	0	-4.169192060509945	0	51.01293986112209	41.95198005282836	0	0
15.66845	0.3296602083906877	0.1327118475955559	-91.75094225678349	0	0.9399999999999999	0	0.4426739819041305	-0.2092550956516346	-0.1221249847355691	0.3888893385607508	0.006787399383788048	-4.777368470218304	0	0	0.4114208908974654	0.3157336291489071	-0.08309858400021193	0.5126080158066737	0.008946697647941593	-4.777368470218304	0	0	0	0	0	0	-4.170399162136375	0	51.01867903092327	41.95379275926012	0	0	0	-4.170399162136375	0	51.01867903092327	41.95379275926012	0	0
